<?xml version="1.0" encoding="utf-8"?>
<!-- Generator: Adobe Illustrator 24.0.1, SVG Export Plug-In . SVG Version: 6.00 Build 0)  -->
<svg version="1.1" id="Camada_1" xmlns="http://www.w3.org/2000/svg" xmlns:xlink="http://www.w3.org/1999/xlink" x="0px" y="0px"
	 viewBox="0 0 150 150" style="enable-background:new 0 0 150 150;" xml:space="preserve">
<style type="text/css">
	.st0{fill:#143867;}
	.st1{opacity:0.8;}
	.st2{fill:#FFFFFF;stroke:#143867;stroke-width:0.25;stroke-miterlimit:10;}
	.st3{fill:#FFFFFF;}
	.st4{fill:#C20000;}
	.st5{opacity:0.9;}
	.st6{fill:#C20000;stroke:#143867;stroke-width:0.25;stroke-miterlimit:10;}
	.st7{fill:none;stroke:#009245;stroke-width:15;stroke-miterlimit:10;}
	.st8{opacity:0.75;fill:#C20000;}
	.st9{fill:none;stroke:#009245;stroke-width:10;stroke-miterlimit:10;}
	.st10{fill:#009245;stroke:#009245;stroke-width:10;stroke-miterlimit:10;}
</style>
<g>
	<circle class="st4" cx="75" cy="75" r="75"/>
	<g>
		<g>
			<path class="st3" d="M121.56,110c-0.51,0-1.02-0.15-1.47-0.45l-15.34-10.48c-1.19-0.81-1.49-2.43-0.68-3.62
				c0.81-1.19,2.43-1.49,3.62-0.68l15.34,10.48c1.19,0.81,1.49,2.43,0.68,3.62C123.21,109.6,122.39,110,121.56,110z"/>
		</g>
		<g>
			<path class="st3" d="M52.61,62.29c-0.51,0-1.03-0.15-1.48-0.46L28.21,46c-1.18-0.82-1.48-2.44-0.66-3.63
				c0.82-1.18,2.44-1.48,3.63-0.66L54.1,57.54c1.18,0.82,1.48,2.44,0.66,3.63C54.25,61.9,53.44,62.29,52.61,62.29z"/>
		</g>
		<g>
			<path class="st3" d="M130.57,79.42c-0.01,0-0.02,0-0.03,0l-28.27-0.27c-1.44-0.01-2.59-1.19-2.58-2.63
				c0.01-1.43,1.18-2.58,2.61-2.58c0.01,0,0.02,0,0.03,0l28.27,0.27c1.44,0.01,2.59,1.19,2.58,2.63
				C133.17,78.27,132,79.42,130.57,79.42z"/>
		</g>
		<g>
			<path class="st3" d="M49.1,78.65c-0.01,0-0.02,0-0.03,0l-28.43-0.27c-1.44-0.01-2.59-1.19-2.58-2.63
				c0.01-1.43,1.18-2.58,2.61-2.58c0.01,0,0.02,0,0.03,0l28.43,0.27c1.44,0.01,2.59,1.19,2.58,2.63
				C51.69,77.5,50.53,78.65,49.1,78.65z"/>
		</g>
		<g>
			<path class="st3" d="M29.69,110c-0.84,0-1.66-0.4-2.16-1.15c-0.81-1.19-0.49-2.81,0.7-3.62l15.48-10.48
				c1.19-0.81,2.81-0.49,3.62,0.7c0.81,1.19,0.49,2.81-0.7,3.62l-15.48,10.48C30.7,109.85,30.19,110,29.69,110z"/>
		</g>
		<g>
			<path class="st3" d="M98.59,62.29c-0.83,0-1.64-0.39-2.15-1.13c-0.82-1.19-0.52-2.81,0.67-3.62l22.97-15.83
				c1.19-0.82,2.81-0.52,3.62,0.67c0.82,1.19,0.52,2.81-0.67,3.62l-22.97,15.83C99.62,62.14,99.1,62.29,98.59,62.29z"/>
		</g>
		<g>
			<g>
				<path class="st3" d="M75.72,104.1c4.57,0,8.41-3.07,9.59-7.26H66.13C67.31,101.03,71.15,104.1,75.72,104.1z"/>
			</g>
			<g>
				<path class="st3" d="M93.49,73.2v-3.54c0-5.04-2.09-9.6-5.45-12.84c-2.13-2.06-4.77-3.6-7.72-4.4c0,0,0,0,0,0
					c0.03-0.21,0.04-0.41,0.04-0.63c0-2.57-2.08-4.65-4.65-4.65c-2.57,0-4.65,2.08-4.65,4.65c0,0.2,0.01,0.39,0.04,0.58
					c-3.02,0.79-5.72,2.34-7.9,4.45c-3.36,3.25-5.45,7.8-5.45,12.84v3.54c0,6.77-3.76,12.65-9.31,15.69v3.86h17.41h19.72h17.22
					v-3.86C97.26,85.86,93.49,79.97,93.49,73.2z"/>
			</g>
		</g>
	</g>
</g>
</svg>
