<?xml version="1.0" encoding="utf-8"?>
<!-- Generator: Adobe Illustrator 24.0.1, SVG Export Plug-In . SVG Version: 6.00 Build 0)  -->
<svg version="1.1" id="Camada_1" xmlns="http://www.w3.org/2000/svg" xmlns:xlink="http://www.w3.org/1999/xlink" x="0px" y="0px"
	 viewBox="0 0 150 150" style="enable-background:new 0 0 150 150;" xml:space="preserve">
<style type="text/css">
	.st0{fill:#143867;}
	.st1{opacity:0.8;}
	.st2{fill:#FFFFFF;stroke:#143867;stroke-width:0.25;stroke-miterlimit:10;}
	.st3{fill:#FFFFFF;}
	.st4{fill:#C20000;}
	.st5{opacity:0.9;}
	.st6{fill:#C20000;stroke:#143867;stroke-width:0.25;stroke-miterlimit:10;}
	.st7{fill:none;stroke:#009245;stroke-width:15;stroke-miterlimit:10;}
	.st8{opacity:0.75;fill:#C20000;}
	.st9{fill:none;stroke:#009245;stroke-width:10;stroke-miterlimit:10;}
	.st10{fill:#009245;stroke:#009245;stroke-width:10;stroke-miterlimit:10;}
</style>
<circle class="st4" cx="75" cy="75" r="75"/>
<g>
	<g>
		<path class="st3" d="M74.75,47.74L43.14,79.36v35.95c0,4.63,3.75,8.38,8.38,8.38h14.44c-0.01-0.1-0.01-0.21-0.01-0.31V96.73
			c0-2.09,1.7-3.78,3.78-3.78h9.79c2.09,0,3.78,1.7,3.78,3.78v26.65c0,0.1-0.01,0.21-0.01,0.31h14.44c4.63,0,8.38-3.75,8.38-8.38
			v-36.2L74.75,47.74z M59.5,97.9c0,2.2-1.78,3.97-3.97,3.97h-1.97c-2.2,0-3.97-1.78-3.97-3.97V82.53c0-2.2,1.78-3.97,3.97-3.97
			h1.97c2.2,0,3.97,1.78,3.97,3.97V97.9z M78.38,67.19c-0.9,0.9-2.14,1.45-3.51,1.45c-2.74,0-4.96-2.22-4.96-4.96
			c0-1.37,0.56-2.61,1.45-3.51c0.9-0.9,2.14-1.45,3.51-1.45c1.37,0,2.61,0.56,3.51,1.45c0.9,0.9,1.45,2.14,1.45,3.51
			C79.83,65.05,79.28,66.29,78.38,67.19z M100.16,97.9c0,2.2-1.78,3.97-3.97,3.97h-1.97c-2.2,0-3.97-1.78-3.97-3.97V82.53
			c0-2.2,1.78-3.97,3.97-3.97h1.97c2.2,0,3.97,1.78,3.97,3.97V97.9z"/>
		<path class="st3" d="M117.46,71.29C117.46,71.29,117.46,71.29,117.46,71.29c-0.24,1.22-0.83,2.39-1.77,3.33
			c-1.26,1.26-2.91,1.89-4.56,1.89c-1.65,0-3.3-0.63-4.56-1.89L74.75,42.79L42.92,74.62c-1.26,1.26-2.91,1.89-4.56,1.89
			c-1.65,0-3.3-0.63-4.56-1.89c-0.94-0.94-1.53-2.1-1.77-3.32c-0.4-2.04,0.19-4.22,1.77-5.8L70.1,29.2
			c1.28-1.28,2.98-1.91,4.65-1.89h0.03c1.67-0.01,3.35,0.61,4.62,1.89l36.29,36.29C117.27,67.07,117.86,69.25,117.46,71.29z"/>
	</g>
</g>
</svg>
