<?xml version="1.0" encoding="utf-8"?>
<!-- Generator: Adobe Illustrator 24.0.1, SVG Export Plug-In . SVG Version: 6.00 Build 0)  -->
<svg version="1.1" id="Camada_1" xmlns="http://www.w3.org/2000/svg" xmlns:xlink="http://www.w3.org/1999/xlink" x="0px" y="0px"
	 viewBox="0 0 150 150" style="enable-background:new 0 0 150 150;" xml:space="preserve">
<style type="text/css">
	.st0{fill:#143867;}
	.st1{opacity:0.8;}
	.st2{fill:#FFFFFF;stroke:#143867;stroke-width:0.25;stroke-miterlimit:10;}
	.st3{fill:#FFFFFF;}
	.st4{fill:#C20000;}
	.st5{opacity:0.9;}
	.st6{fill:#C20000;stroke:#143867;stroke-width:0.25;stroke-miterlimit:10;}
	.st7{fill:none;stroke:#009245;stroke-width:15;stroke-miterlimit:10;}
	.st8{opacity:0.75;fill:#C20000;}
	.st9{fill:none;stroke:#009245;stroke-width:10;stroke-miterlimit:10;}
	.st10{fill:#009245;stroke:#009245;stroke-width:10;stroke-miterlimit:10;}
</style>
<g>
	<circle class="st4" cx="75" cy="75" r="75"/>
	<g>
		<g>
			<path class="st3" d="M127.19,60.96H101.3c-0.71,0-1.37,0.22-1.92,0.59c-0.6,0.41-1.41-0.02-1.41-0.74V36.06
				c0-2.38-1.93-4.31-4.31-4.31H56.34c-2.38,0-4.31,1.93-4.31,4.31v24.75c0,0.73-0.81,1.15-1.41,0.74
				c-0.55-0.37-1.21-0.59-1.92-0.59H22.81c-2.38,0-4.31,1.93-4.31,4.31v41.17c0,2.38,1.93,4.31,4.31,4.31h104.37
				c2.38,0,4.31-1.93,4.31-4.31V65.27C131.49,62.89,129.57,60.96,127.19,60.96z M29.94,101.19h-4.83c-0.5,0-0.9-0.4-0.9-0.9v-9.91
				c0-0.5,0.4-0.9,0.9-0.9h4.83c0.5,0,0.9,0.4,0.9,0.9v9.91C30.84,100.79,30.43,101.19,29.94,101.19z M29.94,81.77h-4.83
				c-0.5,0-0.9-0.4-0.9-0.9v-9.91c0-0.5,0.4-0.9,0.9-0.9h4.83c0.5,0,0.9,0.4,0.9,0.9v9.91C30.84,81.37,30.43,81.77,29.94,81.77z
				 M45.5,101.19h-4.83c-0.5,0-0.9-0.4-0.9-0.9v-9.91c0-0.5,0.4-0.9,0.9-0.9h4.83c0.5,0,0.9,0.4,0.9,0.9v9.91
				C46.41,100.79,46,101.19,45.5,101.19z M45.5,81.77h-4.83c-0.5,0-0.9-0.4-0.9-0.9v-9.91c0-0.5,0.4-0.9,0.9-0.9h4.83
				c0.5,0,0.9,0.4,0.9,0.9v9.91C46.41,81.37,46,81.77,45.5,81.77z M62.15,96.11h-4.83c-0.5,0-0.9-0.4-0.9-0.9v-9.91
				c0-0.5,0.4-0.9,0.9-0.9h4.83c0.5,0,0.9,0.4,0.9,0.9v9.91C63.05,95.7,62.65,96.11,62.15,96.11z M62.15,74.14h-4.83
				c-0.5,0-0.9-0.4-0.9-0.9v-9.91c0-0.5,0.4-0.9,0.9-0.9h4.83c0.5,0,0.9,0.4,0.9,0.9v9.91C63.05,73.74,62.65,74.14,62.15,74.14z
				 M62.15,52.17h-4.83c-0.5,0-0.9-0.4-0.9-0.9v-9.91c0-0.5,0.4-0.9,0.9-0.9h4.83c0.5,0,0.9,0.4,0.9,0.9v9.91
				C63.05,51.77,62.65,52.17,62.15,52.17z M77.41,96.11h-4.83c-0.5,0-0.9-0.4-0.9-0.9v-9.91c0-0.5,0.4-0.9,0.9-0.9h4.83
				c0.5,0,0.9,0.4,0.9,0.9v9.91C78.31,95.7,77.91,96.11,77.41,96.11z M77.41,74.14h-4.83c-0.5,0-0.9-0.4-0.9-0.9v-9.91
				c0-0.5,0.4-0.9,0.9-0.9h4.83c0.5,0,0.9,0.4,0.9,0.9v9.91C78.31,73.74,77.91,74.14,77.41,74.14z M77.41,52.17h-4.83
				c-0.5,0-0.9-0.4-0.9-0.9v-9.91c0-0.5,0.4-0.9,0.9-0.9h4.83c0.5,0,0.9,0.4,0.9,0.9v9.91C78.31,51.77,77.91,52.17,77.41,52.17z
				 M92.67,96.11h-4.83c-0.5,0-0.9-0.4-0.9-0.9v-9.91c0-0.5,0.4-0.9,0.9-0.9h4.83c0.5,0,0.9,0.4,0.9,0.9v9.91
				C93.57,95.7,93.17,96.11,92.67,96.11z M92.67,74.14h-4.83c-0.5,0-0.9-0.4-0.9-0.9v-9.91c0-0.5,0.4-0.9,0.9-0.9h4.83
				c0.5,0,0.9,0.4,0.9,0.9v9.91C93.57,73.74,93.17,74.14,92.67,74.14z M92.67,52.17h-4.83c-0.5,0-0.9-0.4-0.9-0.9v-9.91
				c0-0.5,0.4-0.9,0.9-0.9h4.83c0.5,0,0.9,0.4,0.9,0.9v9.91C93.57,51.77,93.17,52.17,92.67,52.17z M109.32,101.19h-4.83
				c-0.5,0-0.9-0.4-0.9-0.9v-9.91c0-0.5,0.4-0.9,0.9-0.9h4.83c0.5,0,0.9,0.4,0.9,0.9v9.91
				C110.22,100.79,109.82,101.19,109.32,101.19z M109.32,81.77h-4.83c-0.5,0-0.9-0.4-0.9-0.9v-9.91c0-0.5,0.4-0.9,0.9-0.9h4.83
				c0.5,0,0.9,0.4,0.9,0.9v9.91C110.22,81.37,109.82,81.77,109.32,81.77z M124.89,101.19h-4.83c-0.5,0-0.9-0.4-0.9-0.9v-9.91
				c0-0.5,0.4-0.9,0.9-0.9h4.83c0.5,0,0.9,0.4,0.9,0.9v9.91C125.79,100.79,125.39,101.19,124.89,101.19z M124.89,81.77h-4.83
				c-0.5,0-0.9-0.4-0.9-0.9v-9.91c0-0.5,0.4-0.9,0.9-0.9h4.83c0.5,0,0.9,0.4,0.9,0.9v9.91C125.79,81.37,125.39,81.77,124.89,81.77z"
				/>
		</g>
	</g>
</g>
</svg>
