<?xml version="1.0" encoding="utf-8"?>
<!-- Generator: Adobe Illustrator 24.0.1, SVG Export Plug-In . SVG Version: 6.00 Build 0)  -->
<svg version="1.1" id="Camada_1" xmlns="http://www.w3.org/2000/svg" xmlns:xlink="http://www.w3.org/1999/xlink" x="0px" y="0px"
	 viewBox="0 0 150 150" style="enable-background:new 0 0 150 150;" xml:space="preserve">
<style type="text/css">
	.st0{fill:#143867;}
	.st1{opacity:0.8;}
	.st2{fill:#FFFFFF;stroke:#143867;stroke-width:0.25;stroke-miterlimit:10;}
	.st3{fill:#FFFFFF;}
	.st4{fill:#C20000;}
	.st5{opacity:0.9;}
	.st6{fill:#C20000;stroke:#143867;stroke-width:0.25;stroke-miterlimit:10;}
	.st7{fill:none;stroke:#009245;stroke-width:15;stroke-miterlimit:10;}
	.st8{opacity:0.75;fill:#C20000;}
	.st9{fill:none;stroke:#009245;stroke-width:10;stroke-miterlimit:10;}
	.st10{fill:#009245;stroke:#009245;stroke-width:10;stroke-miterlimit:10;}
</style>
<g>
	<circle class="st4" cx="75" cy="75" r="75"/>
	<g>
		<g>
			<path class="st3" d="M67.88,86.78c-3.78,3.78-8.8,5.86-14.14,5.86c-5.34,0-10.36-2.08-14.14-5.86
				c-4.16-4.16-6.22-10.02-5.66-16.08l0.48-5.18h38.65l0.48,5.18C74.09,76.76,72.03,82.62,67.88,86.78z"/>
		</g>
		<g>
			<g>
				<path class="st3" d="M53.73,99.3c-7.12,0-13.82-2.77-18.86-7.81c-5.56-5.56-8.33-13.37-7.58-21.41l3.63-39.29
					c0.09-1.01,0.94-1.79,1.96-1.79h41.69c1.02,0,1.87,0.77,1.96,1.79l3.63,39.29c0.74,8.05-2.02,15.85-7.58,21.41
					C67.55,96.53,60.86,99.3,53.73,99.3z M34.68,32.94l-3.47,37.5c-0.64,6.88,1.71,13.53,6.45,18.27c4.29,4.29,10,6.66,16.07,6.66
					S65.51,93,69.8,88.71c4.73-4.73,7.08-11.39,6.45-18.27l-3.47-37.5H34.68z"/>
			</g>
			<g>
				<path class="st3" d="M53.73,117.03c-1.09,0-1.97-0.88-1.97-1.97V97.18c0-1.09,0.88-1.97,1.97-1.97c1.09,0,1.97,0.88,1.97,1.97
					v17.88C55.7,116.15,54.82,117.03,53.73,117.03z"/>
			</g>
			<g>
				<path class="st3" d="M70.01,117.03H37.46c-1.09,0-1.97-0.88-1.97-1.97s0.88-1.97,1.97-1.97h32.55c1.09,0,1.97,0.88,1.97,1.97
					S71.1,117.03,70.01,117.03z"/>
			</g>
		</g>
		<path class="st3" d="M127.97,88.8c-1.62-9.39-11.15-14.61-20.07-11.7c-1.01,0.33-1.92,0.49-2.81,0.54
			c-0.09-4.22,0.52-15.45,9.71-11.75l1.17-4.52c0,0-15.97-3.89-12.42,16.24c-0.18-0.02-0.35-0.04-0.53-0.06
			c-0.64-1.35-1.29-3.09-1.79-5.23c-1.46-6.28-6.86-7.01-11.97-5.69c-5.11,1.31-7.15-1.17-7.15-1.17c2.92,7.01,6.42,8.47,12.7,8.76
			c3.59,0.17,5.75,1.77,6.94,3.11c-0.43-0.09-0.86-0.19-1.32-0.31c-2.15-0.55-4.36-0.96-6.57-0.85
			c-7.38,0.37-12.21,7.02-13.15,13.82c-1.19,8.61,1.92,17.98,8.36,23.9c2.96,2.72,6.06,3.43,10.01,2.8
			c3.69-0.58,6.73-0.92,10.43-0.14c2.21,0.46,5.02,0.97,7.03-0.33C125.01,110.72,129.67,98.64,127.97,88.8z"/>
	</g>
</g>
</svg>
