<?xml version="1.0" encoding="utf-8"?>
<!-- Generator: Adobe Illustrator 24.0.1, SVG Export Plug-In . SVG Version: 6.00 Build 0)  -->
<svg version="1.1" id="Camada_1" xmlns="http://www.w3.org/2000/svg" xmlns:xlink="http://www.w3.org/1999/xlink" x="0px" y="0px"
	 viewBox="0 0 150 150" style="enable-background:new 0 0 150 150;" xml:space="preserve">
<style type="text/css">
	.st0{fill:#143867;}
	.st1{opacity:0.8;}
	.st2{fill:#FFFFFF;stroke:#143867;stroke-width:0.25;stroke-miterlimit:10;}
	.st3{fill:#FFFFFF;}
	.st4{fill:#C20000;}
	.st5{opacity:0.9;}
	.st6{fill:#C20000;stroke:#143867;stroke-width:0.25;stroke-miterlimit:10;}
	.st7{fill:none;stroke:#009245;stroke-width:15;stroke-miterlimit:10;}
	.st8{opacity:0.75;fill:#C20000;}
	.st9{fill:none;stroke:#009245;stroke-width:10;stroke-miterlimit:10;}
	.st10{fill:#009245;stroke:#009245;stroke-width:10;stroke-miterlimit:10;}
</style>
<g>
	<circle class="st4" cx="75" cy="75" r="75"/>
	<path class="st3" d="M133.13,73.55L93.47,49.31c-1.13-0.69-2.58,0.12-2.58,1.45v8.92c0,0.94-0.76,1.69-1.69,1.69H60.81
		c-0.94,0-1.69-0.76-1.69-1.69v-8.92c0-1.32-1.45-2.14-2.58-1.45L16.87,73.55c-1.08,0.66-1.08,2.23,0,2.89l39.67,24.25
		c1.13,0.69,2.58-0.12,2.58-1.45v-8.92c0-0.94,0.76-1.69,1.69-1.69h28.39c0.94,0,1.69,0.76,1.69,1.69v8.92
		c0,1.32,1.45,2.14,2.58,1.45l39.67-24.25C134.22,75.79,134.22,74.21,133.13,73.55z"/>
</g>
</svg>
